<?xml version="1.0" encoding="UTF-8" standalone="no"?>
<!DOCTYPE svg PUBLIC "-//W3C//DTD SVG 1.1//EN"
 "http://www.w3.org/Graphics/SVG/1.1/DTD/svg11.dtd">
<!-- Generated by graphviz version 2.43.0 (0)
 -->
<!-- Pages: 1 -->
<svg width="1974pt" height="260pt"
 viewBox="0.00 0.00 1973.74 260.00" xmlns="http://www.w3.org/2000/svg" xmlns:xlink="http://www.w3.org/1999/xlink">
<g id="graph0" class="graph" transform="scale(1 1) rotate(0) translate(4 256)">
<polygon fill="white" stroke="transparent" points="-4,4 -4,-256 1969.74,-256 1969.74,4 -4,4"/>
<!-- HighBP -->
<g id="node1" class="node">
<title>HighBP</title>
<ellipse fill="none" stroke="black" cx="46.15" cy="-90" rx="46.29" ry="18"/>
<text text-anchor="middle" x="46.15" y="-86.3" font-family="Times,serif" font-size="14.00">HighBP</text>
</g>
<!-- GenHlth -->
<g id="node2" class="node">
<title>GenHlth</title>
<ellipse fill="none" stroke="black" cx="358.15" cy="-18" rx="50.09" ry="18"/>
<text text-anchor="middle" x="358.15" y="-14.3" font-family="Times,serif" font-size="14.00">GenHlth</text>
</g>
<!-- HighBP&#45;&gt;GenHlth -->
<g id="edge1" class="edge">
<title>HighBP&#45;&gt;GenHlth</title>
<path fill="none" stroke="black" d="M81.89,-78.44C89.85,-76.21 98.26,-73.94 106.15,-72 174.31,-55.2 253.67,-39.07 304.84,-29.1"/>
<polygon fill="black" stroke="black" points="305.54,-32.54 314.69,-27.2 304.2,-25.66 305.54,-32.54"/>
</g>
<!-- Veggies -->
<g id="node3" class="node">
<title>Veggies</title>
<ellipse fill="none" stroke="black" cx="941.15" cy="-234" rx="46.59" ry="18"/>
<text text-anchor="middle" x="941.15" y="-230.3" font-family="Times,serif" font-size="14.00">Veggies</text>
</g>
<!-- Education -->
<g id="node4" class="node">
<title>Education</title>
<ellipse fill="none" stroke="black" cx="1013.15" cy="-162" rx="57.69" ry="18"/>
<text text-anchor="middle" x="1013.15" y="-158.3" font-family="Times,serif" font-size="14.00">Education</text>
</g>
<!-- Veggies&#45;&gt;Education -->
<g id="edge2" class="edge">
<title>Veggies&#45;&gt;Education</title>
<path fill="none" stroke="black" d="M957.48,-217.12C966.83,-208.03 978.73,-196.46 989.13,-186.35"/>
<polygon fill="black" stroke="black" points="991.64,-188.79 996.37,-179.31 986.76,-183.77 991.64,-188.79"/>
</g>
<!-- Income -->
<g id="node5" class="node">
<title>Income</title>
<ellipse fill="none" stroke="black" cx="1013.15" cy="-90" rx="44.39" ry="18"/>
<text text-anchor="middle" x="1013.15" y="-86.3" font-family="Times,serif" font-size="14.00">Income</text>
</g>
<!-- Education&#45;&gt;Income -->
<g id="edge3" class="edge">
<title>Education&#45;&gt;Income</title>
<path fill="none" stroke="black" d="M1013.15,-143.7C1013.15,-135.98 1013.15,-126.71 1013.15,-118.11"/>
<polygon fill="black" stroke="black" points="1016.65,-118.1 1013.15,-108.1 1009.65,-118.1 1016.65,-118.1"/>
</g>
<!-- PhysHlth -->
<g id="node6" class="node">
<title>PhysHlth</title>
<ellipse fill="none" stroke="black" cx="202.15" cy="-162" rx="53.89" ry="18"/>
<text text-anchor="middle" x="202.15" y="-158.3" font-family="Times,serif" font-size="14.00">PhysHlth</text>
</g>
<!-- PhysHlth&#45;&gt;GenHlth -->
<g id="edge4" class="edge">
<title>PhysHlth&#45;&gt;GenHlth</title>
<path fill="none" stroke="black" d="M189.58,-144.33C176.8,-125.16 160.98,-93.58 177.15,-72 192.36,-51.69 255.49,-36.55 302.94,-27.76"/>
<polygon fill="black" stroke="black" points="303.58,-31.2 312.8,-25.98 302.34,-24.31 303.58,-31.2"/>
</g>
<!-- DiffWalk -->
<g id="node7" class="node">
<title>DiffWalk</title>
<ellipse fill="none" stroke="black" cx="236.15" cy="-90" rx="50.09" ry="18"/>
<text text-anchor="middle" x="236.15" y="-86.3" font-family="Times,serif" font-size="14.00">DiffWalk</text>
</g>
<!-- PhysHlth&#45;&gt;DiffWalk -->
<g id="edge5" class="edge">
<title>PhysHlth&#45;&gt;DiffWalk</title>
<path fill="none" stroke="black" d="M210.38,-144.05C214.34,-135.89 219.19,-125.91 223.6,-116.82"/>
<polygon fill="black" stroke="black" points="226.77,-118.31 227.99,-107.79 220.47,-115.25 226.77,-118.31"/>
</g>
<!-- DiffWalk&#45;&gt;GenHlth -->
<g id="edge6" class="edge">
<title>DiffWalk&#45;&gt;GenHlth</title>
<path fill="none" stroke="black" d="M261.72,-74.33C279.78,-63.97 304.17,-49.97 323.9,-38.65"/>
<polygon fill="black" stroke="black" points="325.67,-41.67 332.6,-33.65 322.19,-35.6 325.67,-41.67"/>
</g>
<!-- HighChol -->
<g id="node8" class="node">
<title>HighChol</title>
<ellipse fill="none" stroke="black" cx="358.15" cy="-90" rx="53.89" ry="18"/>
<text text-anchor="middle" x="358.15" y="-86.3" font-family="Times,serif" font-size="14.00">HighChol</text>
</g>
<!-- HighChol&#45;&gt;GenHlth -->
<g id="edge7" class="edge">
<title>HighChol&#45;&gt;GenHlth</title>
<path fill="none" stroke="black" d="M358.15,-71.7C358.15,-63.98 358.15,-54.71 358.15,-46.11"/>
<polygon fill="black" stroke="black" points="361.65,-46.1 358.15,-36.1 354.65,-46.1 361.65,-46.1"/>
</g>
<!-- Stroke -->
<g id="node9" class="node">
<title>Stroke</title>
<ellipse fill="none" stroke="black" cx="472.15" cy="-90" rx="41.69" ry="18"/>
<text text-anchor="middle" x="472.15" y="-86.3" font-family="Times,serif" font-size="14.00">Stroke</text>
</g>
<!-- Stroke&#45;&gt;GenHlth -->
<g id="edge8" class="edge">
<title>Stroke&#45;&gt;GenHlth</title>
<path fill="none" stroke="black" d="M449.08,-74.83C432.41,-64.6 409.67,-50.64 391.1,-39.23"/>
<polygon fill="black" stroke="black" points="392.71,-36.12 382.36,-33.87 389.05,-42.08 392.71,-36.12"/>
</g>
<!-- Diabetes_binary -->
<g id="node10" class="node">
<title>Diabetes_binary</title>
<ellipse fill="none" stroke="black" cx="617.15" cy="-90" rx="85.59" ry="18"/>
<text text-anchor="middle" x="617.15" y="-86.3" font-family="Times,serif" font-size="14.00">Diabetes_binary</text>
</g>
<!-- Diabetes_binary&#45;&gt;GenHlth -->
<g id="edge9" class="edge">
<title>Diabetes_binary&#45;&gt;GenHlth</title>
<path fill="none" stroke="black" d="M566.59,-75.34C520.37,-62.85 452.46,-44.49 406.83,-32.16"/>
<polygon fill="black" stroke="black" points="407.73,-28.78 397.17,-29.55 405.91,-35.53 407.73,-28.78"/>
</g>
<!-- CholCheck -->
<g id="node11" class="node">
<title>CholCheck</title>
<ellipse fill="none" stroke="black" cx="891.15" cy="-90" rx="59.59" ry="18"/>
<text text-anchor="middle" x="891.15" y="-86.3" font-family="Times,serif" font-size="14.00">CholCheck</text>
</g>
<!-- CholCheck&#45;&gt;GenHlth -->
<g id="edge10" class="edge">
<title>CholCheck&#45;&gt;GenHlth</title>
<path fill="none" stroke="black" d="M847.89,-77.45C839.4,-75.43 830.52,-73.5 822.15,-72 677.64,-46.05 505.41,-30.3 416.98,-23.29"/>
<polygon fill="black" stroke="black" points="417.12,-19.79 406.87,-22.5 416.57,-26.77 417.12,-19.79"/>
</g>
<!-- BMI -->
<g id="node12" class="node">
<title>BMI</title>
<ellipse fill="none" stroke="black" cx="852.15" cy="-18" rx="30.59" ry="18"/>
<text text-anchor="middle" x="852.15" y="-14.3" font-family="Times,serif" font-size="14.00">BMI</text>
</g>
<!-- CholCheck&#45;&gt;BMI -->
<g id="edge11" class="edge">
<title>CholCheck&#45;&gt;BMI</title>
<path fill="none" stroke="black" d="M881.71,-72.05C877.04,-63.68 871.31,-53.4 866.15,-44.13"/>
<polygon fill="black" stroke="black" points="869.16,-42.34 861.23,-35.31 863.04,-45.75 869.16,-42.34"/>
</g>
<!-- Age -->
<g id="node13" class="node">
<title>Age</title>
<ellipse fill="none" stroke="black" cx="929.15" cy="-18" rx="28.7" ry="18"/>
<text text-anchor="middle" x="929.15" y="-14.3" font-family="Times,serif" font-size="14.00">Age</text>
</g>
<!-- CholCheck&#45;&gt;Age -->
<g id="edge12" class="edge">
<title>CholCheck&#45;&gt;Age</title>
<path fill="none" stroke="black" d="M900.34,-72.05C904.89,-63.68 910.47,-53.4 915.5,-44.13"/>
<polygon fill="black" stroke="black" points="918.6,-45.77 920.29,-35.31 912.45,-42.43 918.6,-45.77"/>
</g>
<!-- Smoker -->
<g id="node14" class="node">
<title>Smoker</title>
<ellipse fill="none" stroke="black" cx="767.15" cy="-90" rx="46.29" ry="18"/>
<text text-anchor="middle" x="767.15" y="-86.3" font-family="Times,serif" font-size="14.00">Smoker</text>
</g>
<!-- Smoker&#45;&gt;GenHlth -->
<g id="edge13" class="edge">
<title>Smoker&#45;&gt;GenHlth</title>
<path fill="none" stroke="black" d="M733.33,-77.67C726.38,-75.59 719.06,-73.58 712.15,-72 608.92,-48.46 486.3,-32.78 415.82,-24.92"/>
<polygon fill="black" stroke="black" points="416.13,-21.44 405.81,-23.82 415.37,-28.39 416.13,-21.44"/>
</g>
<!-- AnyHealthcare -->
<g id="node15" class="node">
<title>AnyHealthcare</title>
<ellipse fill="none" stroke="black" cx="1085.15" cy="-234" rx="79.09" ry="18"/>
<text text-anchor="middle" x="1085.15" y="-230.3" font-family="Times,serif" font-size="14.00">AnyHealthcare</text>
</g>
<!-- AnyHealthcare&#45;&gt;Education -->
<g id="edge14" class="edge">
<title>AnyHealthcare&#45;&gt;Education</title>
<path fill="none" stroke="black" d="M1068.08,-216.41C1058.94,-207.52 1047.51,-196.41 1037.45,-186.63"/>
<polygon fill="black" stroke="black" points="1039.7,-183.93 1030.09,-179.47 1034.82,-188.95 1039.7,-183.93"/>
</g>
<!-- NoDocbcCost -->
<g id="node16" class="node">
<title>NoDocbcCost</title>
<ellipse fill="none" stroke="black" cx="202.15" cy="-234" rx="73.39" ry="18"/>
<text text-anchor="middle" x="202.15" y="-230.3" font-family="Times,serif" font-size="14.00">NoDocbcCost</text>
</g>
<!-- NoDocbcCost&#45;&gt;GenHlth -->
<g id="edge15" class="edge">
<title>NoDocbcCost&#45;&gt;GenHlth</title>
<path fill="none" stroke="black" d="M173.83,-217.18C160.68,-208.17 146.38,-195.55 139.15,-180 118.22,-135.05 130.37,-105.26 167.15,-72 202.98,-39.58 256.97,-26.78 298.42,-21.83"/>
<polygon fill="black" stroke="black" points="298.83,-25.31 308.4,-20.76 298.08,-18.35 298.83,-25.31"/>
</g>
<!-- NoDocbcCost&#45;&gt;PhysHlth -->
<g id="edge16" class="edge">
<title>NoDocbcCost&#45;&gt;PhysHlth</title>
<path fill="none" stroke="black" d="M202.15,-215.7C202.15,-207.98 202.15,-198.71 202.15,-190.11"/>
<polygon fill="black" stroke="black" points="205.65,-190.1 202.15,-180.1 198.65,-190.1 205.65,-190.1"/>
</g>
<!-- MentHlth -->
<g id="node17" class="node">
<title>MentHlth</title>
<ellipse fill="none" stroke="black" cx="330.15" cy="-162" rx="55.79" ry="18"/>
<text text-anchor="middle" x="330.15" y="-158.3" font-family="Times,serif" font-size="14.00">MentHlth</text>
</g>
<!-- NoDocbcCost&#45;&gt;MentHlth -->
<g id="edge17" class="edge">
<title>NoDocbcCost&#45;&gt;MentHlth</title>
<path fill="none" stroke="black" d="M230.87,-217.29C249.54,-207.08 274.02,-193.69 294,-182.77"/>
<polygon fill="black" stroke="black" points="295.74,-185.81 302.83,-177.94 292.38,-179.66 295.74,-185.81"/>
</g>
<!-- Fruits -->
<g id="node18" class="node">
<title>Fruits</title>
<ellipse fill="none" stroke="black" cx="1221.15" cy="-234" rx="38.99" ry="18"/>
<text text-anchor="middle" x="1221.15" y="-230.3" font-family="Times,serif" font-size="14.00">Fruits</text>
</g>
<!-- HeartDiseaseorAttack -->
<g id="node19" class="node">
<title>HeartDiseaseorAttack</title>
<ellipse fill="none" stroke="black" cx="1391.15" cy="-234" rx="113.18" ry="18"/>
<text text-anchor="middle" x="1391.15" y="-230.3" font-family="Times,serif" font-size="14.00">HeartDiseaseorAttack</text>
</g>
<!-- PhysActivity -->
<g id="node20" class="node">
<title>PhysActivity</title>
<ellipse fill="none" stroke="black" cx="1591.15" cy="-234" rx="68.79" ry="18"/>
<text text-anchor="middle" x="1591.15" y="-230.3" font-family="Times,serif" font-size="14.00">PhysActivity</text>
</g>
<!-- Sex -->
<g id="node21" class="node">
<title>Sex</title>
<ellipse fill="none" stroke="black" cx="1706.15" cy="-234" rx="27.9" ry="18"/>
<text text-anchor="middle" x="1706.15" y="-230.3" font-family="Times,serif" font-size="14.00">Sex</text>
</g>
<!-- HvyAlcoholConsump -->
<g id="node22" class="node">
<title>HvyAlcoholConsump</title>
<ellipse fill="none" stroke="black" cx="1859.15" cy="-234" rx="106.68" ry="18"/>
<text text-anchor="middle" x="1859.15" y="-230.3" font-family="Times,serif" font-size="14.00">HvyAlcoholConsump</text>
</g>
</g>
</svg>
