<?xml version="1.0" encoding="UTF-8" standalone="no"?>
<!DOCTYPE svg PUBLIC "-//W3C//DTD SVG 1.1//EN"
 "http://www.w3.org/Graphics/SVG/1.1/DTD/svg11.dtd">
<!-- Generated by graphviz version 2.43.0 (0)
 -->
<!-- Pages: 1 -->
<svg width="1309pt" height="332pt"
 viewBox="0.00 0.00 1308.89 332.00" xmlns="http://www.w3.org/2000/svg" xmlns:xlink="http://www.w3.org/1999/xlink">
<g id="graph0" class="graph" transform="scale(1 1) rotate(0) translate(4 328)">
<polygon fill="white" stroke="transparent" points="-4,4 -4,-328 1304.89,-328 1304.89,4 -4,4"/>
<!-- Sex -->
<g id="node1" class="node">
<title>Sex</title>
<ellipse fill="none" stroke="black" cx="39" cy="-306" rx="27.9" ry="18"/>
<text text-anchor="middle" x="39" y="-302.3" font-family="Times,serif" font-size="14.00">Sex</text>
</g>
<!-- Fruits -->
<g id="node2" class="node">
<title>Fruits</title>
<ellipse fill="none" stroke="black" cx="39" cy="-234" rx="38.99" ry="18"/>
<text text-anchor="middle" x="39" y="-230.3" font-family="Times,serif" font-size="14.00">Fruits</text>
</g>
<!-- Sex&#45;&gt;Fruits -->
<g id="edge1" class="edge">
<title>Sex&#45;&gt;Fruits</title>
<path fill="none" stroke="black" d="M39,-287.7C39,-279.98 39,-270.71 39,-262.11"/>
<polygon fill="black" stroke="black" points="42.5,-262.1 39,-252.1 35.5,-262.1 42.5,-262.1"/>
</g>
<!-- HighChol -->
<g id="node3" class="node">
<title>HighChol</title>
<ellipse fill="none" stroke="black" cx="182" cy="-306" rx="53.89" ry="18"/>
<text text-anchor="middle" x="182" y="-302.3" font-family="Times,serif" font-size="14.00">HighChol</text>
</g>
<!-- GenHlth -->
<g id="node4" class="node">
<title>GenHlth</title>
<ellipse fill="none" stroke="black" cx="342" cy="-234" rx="50.09" ry="18"/>
<text text-anchor="middle" x="342" y="-230.3" font-family="Times,serif" font-size="14.00">GenHlth</text>
</g>
<!-- HighChol&#45;&gt;GenHlth -->
<g id="edge2" class="edge">
<title>HighChol&#45;&gt;GenHlth</title>
<path fill="none" stroke="black" d="M213.61,-291.17C239.03,-280.05 274.88,-264.36 302.24,-252.39"/>
<polygon fill="black" stroke="black" points="303.78,-255.54 311.54,-248.33 300.97,-249.13 303.78,-255.54"/>
</g>
<!-- Age -->
<g id="node5" class="node">
<title>Age</title>
<ellipse fill="none" stroke="black" cx="489" cy="-90" rx="28.7" ry="18"/>
<text text-anchor="middle" x="489" y="-86.3" font-family="Times,serif" font-size="14.00">Age</text>
</g>
<!-- HighChol&#45;&gt;Age -->
<g id="edge3" class="edge">
<title>HighChol&#45;&gt;Age</title>
<path fill="none" stroke="black" d="M178.18,-288C171.95,-255.38 163.75,-183.73 201,-144 209.55,-134.88 375.06,-108.47 451.23,-96.74"/>
<polygon fill="black" stroke="black" points="452,-100.16 461.35,-95.18 450.94,-93.24 452,-100.16"/>
</g>
<!-- Diabetes_binary -->
<g id="node6" class="node">
<title>Diabetes_binary</title>
<ellipse fill="none" stroke="black" cx="176" cy="-18" rx="85.59" ry="18"/>
<text text-anchor="middle" x="176" y="-14.3" font-family="Times,serif" font-size="14.00">Diabetes_binary</text>
</g>
<!-- HighChol&#45;&gt;Diabetes_binary -->
<g id="edge4" class="edge">
<title>HighChol&#45;&gt;Diabetes_binary</title>
<path fill="none" stroke="black" d="M170.9,-288.11C146.69,-249 93.71,-149.64 125,-72 129.5,-60.82 137.61,-50.69 146.06,-42.34"/>
<polygon fill="black" stroke="black" points="148.52,-44.84 153.49,-35.48 143.77,-39.69 148.52,-44.84"/>
</g>
<!-- HeartDiseaseorAttack -->
<g id="node7" class="node">
<title>HeartDiseaseorAttack</title>
<ellipse fill="none" stroke="black" cx="247" cy="-90" rx="113.18" ry="18"/>
<text text-anchor="middle" x="247" y="-86.3" font-family="Times,serif" font-size="14.00">HeartDiseaseorAttack</text>
</g>
<!-- HighChol&#45;&gt;HeartDiseaseorAttack -->
<g id="edge5" class="edge">
<title>HighChol&#45;&gt;HeartDiseaseorAttack</title>
<path fill="none" stroke="black" d="M174.68,-287.79C162.77,-256.94 142.91,-191.04 168,-144 175.07,-130.74 187.1,-120.21 199.66,-112.14"/>
<polygon fill="black" stroke="black" points="201.59,-115.07 208.39,-106.95 198.01,-109.05 201.59,-115.07"/>
</g>
<!-- PhysHlth -->
<g id="node8" class="node">
<title>PhysHlth</title>
<ellipse fill="none" stroke="black" cx="264" cy="-162" rx="53.89" ry="18"/>
<text text-anchor="middle" x="264" y="-158.3" font-family="Times,serif" font-size="14.00">PhysHlth</text>
</g>
<!-- HighChol&#45;&gt;PhysHlth -->
<g id="edge6" class="edge">
<title>HighChol&#45;&gt;PhysHlth</title>
<path fill="none" stroke="black" d="M191.73,-288.15C205.97,-263.49 232.6,-217.37 249.25,-188.53"/>
<polygon fill="black" stroke="black" points="252.31,-190.24 254.28,-179.82 246.25,-186.73 252.31,-190.24"/>
</g>
<!-- GenHlth&#45;&gt;Age -->
<g id="edge7" class="edge">
<title>GenHlth&#45;&gt;Age</title>
<path fill="none" stroke="black" d="M372.72,-219.75C391.63,-210.54 415.51,-196.9 433,-180 451.98,-161.66 467.38,-135.65 477.19,-116.48"/>
<polygon fill="black" stroke="black" points="480.38,-117.94 481.68,-107.42 474.1,-114.83 480.38,-117.94"/>
</g>
<!-- GenHlth&#45;&gt;PhysHlth -->
<g id="edge8" class="edge">
<title>GenHlth&#45;&gt;PhysHlth</title>
<path fill="none" stroke="black" d="M324.3,-217.12C314,-207.87 300.84,-196.07 289.45,-185.84"/>
<polygon fill="black" stroke="black" points="291.68,-183.14 281.9,-179.06 287,-188.35 291.68,-183.14"/>
</g>
<!-- HeartDiseaseorAttack&#45;&gt;Diabetes_binary -->
<g id="edge21" class="edge">
<title>HeartDiseaseorAttack&#45;&gt;Diabetes_binary</title>
<path fill="none" stroke="black" d="M229.81,-72.05C220.91,-63.28 209.91,-52.43 200.17,-42.83"/>
<polygon fill="black" stroke="black" points="202.6,-40.32 193.03,-35.79 197.69,-45.3 202.6,-40.32"/>
</g>
<!-- PhysHlth&#45;&gt;Age -->
<g id="edge23" class="edge">
<title>PhysHlth&#45;&gt;Age</title>
<path fill="none" stroke="black" d="M302.16,-149.13C344.79,-135.86 413.18,-114.59 454.33,-101.79"/>
<polygon fill="black" stroke="black" points="455.41,-105.11 463.92,-98.8 453.33,-98.43 455.41,-105.11"/>
</g>
<!-- PhysHlth&#45;&gt;HeartDiseaseorAttack -->
<g id="edge24" class="edge">
<title>PhysHlth&#45;&gt;HeartDiseaseorAttack</title>
<path fill="none" stroke="black" d="M259.79,-143.7C257.9,-135.9 255.62,-126.51 253.51,-117.83"/>
<polygon fill="black" stroke="black" points="256.91,-117 251.15,-108.1 250.11,-118.65 256.91,-117"/>
</g>
<!-- MentHlth -->
<g id="node9" class="node">
<title>MentHlth</title>
<ellipse fill="none" stroke="black" cx="1245" cy="-162" rx="55.79" ry="18"/>
<text text-anchor="middle" x="1245" y="-158.3" font-family="Times,serif" font-size="14.00">MentHlth</text>
</g>
<!-- Stroke -->
<g id="node10" class="node">
<title>Stroke</title>
<ellipse fill="none" stroke="black" cx="1245" cy="-90" rx="41.69" ry="18"/>
<text text-anchor="middle" x="1245" y="-86.3" font-family="Times,serif" font-size="14.00">Stroke</text>
</g>
<!-- MentHlth&#45;&gt;Stroke -->
<g id="edge9" class="edge">
<title>MentHlth&#45;&gt;Stroke</title>
<path fill="none" stroke="black" d="M1245,-143.7C1245,-135.98 1245,-126.71 1245,-118.11"/>
<polygon fill="black" stroke="black" points="1248.5,-118.1 1245,-108.1 1241.5,-118.1 1248.5,-118.1"/>
</g>
<!-- Smoker -->
<g id="node11" class="node">
<title>Smoker</title>
<ellipse fill="none" stroke="black" cx="1049" cy="-90" rx="46.29" ry="18"/>
<text text-anchor="middle" x="1049" y="-86.3" font-family="Times,serif" font-size="14.00">Smoker</text>
</g>
<!-- MentHlth&#45;&gt;Smoker -->
<g id="edge10" class="edge">
<title>MentHlth&#45;&gt;Smoker</title>
<path fill="none" stroke="black" d="M1209.05,-148.16C1175.81,-136.29 1126.4,-118.65 1091.29,-106.1"/>
<polygon fill="black" stroke="black" points="1092.38,-102.78 1081.79,-102.71 1090.03,-109.37 1092.38,-102.78"/>
</g>
<!-- Income -->
<g id="node12" class="node">
<title>Income</title>
<ellipse fill="none" stroke="black" cx="380" cy="-162" rx="44.39" ry="18"/>
<text text-anchor="middle" x="380" y="-158.3" font-family="Times,serif" font-size="14.00">Income</text>
</g>
<!-- Income&#45;&gt;Age -->
<g id="edge11" class="edge">
<title>Income&#45;&gt;Age</title>
<path fill="none" stroke="black" d="M402.58,-146.5C419.62,-135.55 443.09,-120.48 461.27,-108.81"/>
<polygon fill="black" stroke="black" points="463.2,-111.73 469.72,-103.38 459.41,-105.84 463.2,-111.73"/>
</g>
<!-- PhysActivity -->
<g id="node13" class="node">
<title>PhysActivity</title>
<ellipse fill="none" stroke="black" cx="873" cy="-162" rx="68.79" ry="18"/>
<text text-anchor="middle" x="873" y="-158.3" font-family="Times,serif" font-size="14.00">PhysActivity</text>
</g>
<!-- PhysActivity&#45;&gt;Age -->
<g id="edge12" class="edge">
<title>PhysActivity&#45;&gt;Age</title>
<path fill="none" stroke="black" d="M822.29,-149.62C813.22,-147.67 803.84,-145.73 795,-144 698.61,-125.16 584.46,-106.29 526.62,-96.98"/>
<polygon fill="black" stroke="black" points="526.93,-93.49 516.5,-95.36 525.82,-100.4 526.93,-93.49"/>
</g>
<!-- PhysActivity&#45;&gt;Smoker -->
<g id="edge13" class="edge">
<title>PhysActivity&#45;&gt;Smoker</title>
<path fill="none" stroke="black" d="M909.46,-146.5C938.36,-135.01 978.69,-118.96 1008.57,-107.08"/>
<polygon fill="black" stroke="black" points="1009.87,-110.33 1017.87,-103.38 1007.28,-103.82 1009.87,-110.33"/>
</g>
<!-- CholCheck -->
<g id="node14" class="node">
<title>CholCheck</title>
<ellipse fill="none" stroke="black" cx="954" cy="-234" rx="59.59" ry="18"/>
<text text-anchor="middle" x="954" y="-230.3" font-family="Times,serif" font-size="14.00">CholCheck</text>
</g>
<!-- BMI -->
<g id="node15" class="node">
<title>BMI</title>
<ellipse fill="none" stroke="black" cx="990" cy="-162" rx="30.59" ry="18"/>
<text text-anchor="middle" x="990" y="-158.3" font-family="Times,serif" font-size="14.00">BMI</text>
</g>
<!-- CholCheck&#45;&gt;BMI -->
<g id="edge14" class="edge">
<title>CholCheck&#45;&gt;BMI</title>
<path fill="none" stroke="black" d="M962.71,-216.05C966.91,-207.89 972.04,-197.91 976.72,-188.82"/>
<polygon fill="black" stroke="black" points="979.9,-190.28 981.36,-179.79 973.68,-187.08 979.9,-190.28"/>
</g>
<!-- BMI&#45;&gt;Smoker -->
<g id="edge15" class="edge">
<title>BMI&#45;&gt;Smoker</title>
<path fill="none" stroke="black" d="M1003.09,-145.46C1010.59,-136.57 1020.17,-125.21 1028.63,-115.16"/>
<polygon fill="black" stroke="black" points="1031.35,-117.37 1035.12,-107.47 1026,-112.86 1031.35,-117.37"/>
</g>
<!-- NoDocbcCost -->
<g id="node16" class="node">
<title>NoDocbcCost</title>
<ellipse fill="none" stroke="black" cx="342" cy="-306" rx="73.39" ry="18"/>
<text text-anchor="middle" x="342" y="-302.3" font-family="Times,serif" font-size="14.00">NoDocbcCost</text>
</g>
<!-- NoDocbcCost&#45;&gt;GenHlth -->
<g id="edge16" class="edge">
<title>NoDocbcCost&#45;&gt;GenHlth</title>
<path fill="none" stroke="black" d="M342,-287.7C342,-279.98 342,-270.71 342,-262.11"/>
<polygon fill="black" stroke="black" points="345.5,-262.1 342,-252.1 338.5,-262.1 345.5,-262.1"/>
</g>
<!-- NoDocbcCost&#45;&gt;Age -->
<g id="edge17" class="edge">
<title>NoDocbcCost&#45;&gt;Age</title>
<path fill="none" stroke="black" d="M396.22,-293.83C453.53,-278.81 541.04,-245.99 581,-180 589.28,-166.31 589,-157.85 581,-144 568.81,-122.92 544.71,-109.48 524.23,-101.42"/>
<polygon fill="black" stroke="black" points="525.43,-98.13 514.84,-97.98 523.03,-104.7 525.43,-98.13"/>
</g>
<!-- NoDocbcCost&#45;&gt;PhysHlth -->
<g id="edge18" class="edge">
<title>NoDocbcCost&#45;&gt;PhysHlth</title>
<path fill="none" stroke="black" d="M317.64,-288.82C305.43,-279.47 291.48,-266.66 283,-252 272.08,-233.14 267.41,-208.77 265.43,-190.3"/>
<polygon fill="black" stroke="black" points="268.9,-189.85 264.54,-180.19 261.93,-190.46 268.9,-189.85"/>
</g>
<!-- Education -->
<g id="node17" class="node">
<title>Education</title>
<ellipse fill="none" stroke="black" cx="1090" cy="-234" rx="57.69" ry="18"/>
<text text-anchor="middle" x="1090" y="-230.3" font-family="Times,serif" font-size="14.00">Education</text>
</g>
<!-- Education&#45;&gt;Smoker -->
<g id="edge20" class="edge">
<title>Education&#45;&gt;Smoker</title>
<path fill="none" stroke="black" d="M1082.05,-216.11C1077.46,-205.84 1071.85,-192.37 1068,-180 1061.66,-159.67 1056.73,-136.07 1053.48,-118.29"/>
<polygon fill="black" stroke="black" points="1056.91,-117.54 1051.72,-108.3 1050.01,-118.76 1056.91,-117.54"/>
</g>
<!-- Education&#45;&gt;BMI -->
<g id="edge19" class="edge">
<title>Education&#45;&gt;BMI</title>
<path fill="none" stroke="black" d="M1067.3,-217.12C1052.43,-206.7 1032.9,-193.03 1017.19,-182.03"/>
<polygon fill="black" stroke="black" points="1019.11,-179.1 1008.91,-176.24 1015.09,-184.84 1019.11,-179.1"/>
</g>
<!-- HvyAlcoholConsump -->
<g id="node18" class="node">
<title>HvyAlcoholConsump</title>
<ellipse fill="none" stroke="black" cx="770" cy="-234" rx="106.68" ry="18"/>
<text text-anchor="middle" x="770" y="-230.3" font-family="Times,serif" font-size="14.00">HvyAlcoholConsump</text>
</g>
<!-- HvyAlcoholConsump&#45;&gt;BMI -->
<g id="edge22" class="edge">
<title>HvyAlcoholConsump&#45;&gt;BMI</title>
<path fill="none" stroke="black" d="M826.04,-218.56C862.09,-208.78 909.75,-194.96 951,-180 953.08,-179.24 955.22,-178.43 957.36,-177.58"/>
<polygon fill="black" stroke="black" points="958.77,-180.79 966.68,-173.73 956.1,-174.32 958.77,-180.79"/>
</g>
<!-- Veggies -->
<g id="node19" class="node">
<title>Veggies</title>
<ellipse fill="none" stroke="black" cx="1124" cy="-162" rx="46.59" ry="18"/>
<text text-anchor="middle" x="1124" y="-158.3" font-family="Times,serif" font-size="14.00">Veggies</text>
</g>
<!-- Veggies&#45;&gt;Smoker -->
<g id="edge25" class="edge">
<title>Veggies&#45;&gt;Smoker</title>
<path fill="none" stroke="black" d="M1106.98,-145.12C1097.1,-135.9 1084.49,-124.13 1073.55,-113.92"/>
<polygon fill="black" stroke="black" points="1075.65,-111.09 1065.95,-106.82 1070.87,-116.2 1075.65,-111.09"/>
</g>
<!-- HighBP -->
<g id="node20" class="node">
<title>HighBP</title>
<ellipse fill="none" stroke="black" cx="526" cy="-162" rx="46.29" ry="18"/>
<text text-anchor="middle" x="526" y="-158.3" font-family="Times,serif" font-size="14.00">HighBP</text>
</g>
<!-- HighBP&#45;&gt;Age -->
<g id="edge26" class="edge">
<title>HighBP&#45;&gt;Age</title>
<path fill="none" stroke="black" d="M517.04,-144.05C512.66,-135.77 507.29,-125.62 502.43,-116.42"/>
<polygon fill="black" stroke="black" points="505.38,-114.51 497.62,-107.31 499.19,-117.78 505.38,-114.51"/>
</g>
<!-- AnyHealthcare -->
<g id="node21" class="node">
<title>AnyHealthcare</title>
<ellipse fill="none" stroke="black" cx="707" cy="-162" rx="79.09" ry="18"/>
<text text-anchor="middle" x="707" y="-158.3" font-family="Times,serif" font-size="14.00">AnyHealthcare</text>
</g>
<!-- AnyHealthcare&#45;&gt;Age -->
<g id="edge27" class="edge">
<title>AnyHealthcare&#45;&gt;Age</title>
<path fill="none" stroke="black" d="M663.14,-146.92C622.05,-133.72 561.46,-114.27 523.65,-102.13"/>
<polygon fill="black" stroke="black" points="524.68,-98.78 514.09,-99.06 522.54,-105.45 524.68,-98.78"/>
</g>
<!-- DiffWalk -->
<g id="node22" class="node">
<title>DiffWalk</title>
<ellipse fill="none" stroke="black" cx="483" cy="-306" rx="50.09" ry="18"/>
<text text-anchor="middle" x="483" y="-302.3" font-family="Times,serif" font-size="14.00">DiffWalk</text>
</g>
</g>
</svg>
