<?xml version="1.0" encoding="UTF-8" standalone="no"?>
<!DOCTYPE svg PUBLIC "-//W3C//DTD SVG 1.1//EN"
 "http://www.w3.org/Graphics/SVG/1.1/DTD/svg11.dtd">
<!-- Generated by graphviz version 2.43.0 (0)
 -->
<!-- Pages: 1 -->
<svg width="424pt" height="116pt"
 viewBox="0.00 0.00 424.09 116.00" xmlns="http://www.w3.org/2000/svg" xmlns:xlink="http://www.w3.org/1999/xlink">
<g id="graph0" class="graph" transform="scale(1 1) rotate(0) translate(4 112)">
<polygon fill="white" stroke="transparent" points="-4,4 -4,-112 420.09,-112 420.09,4 -4,4"/>
<!-- DiffWalk -->
<g id="node1" class="node">
<title>DiffWalk</title>
<ellipse fill="none" stroke="black" cx="50.05" cy="-90" rx="50.09" ry="18"/>
<text text-anchor="middle" x="50.05" y="-86.3" font-family="Times,serif" font-size="14.00">DiffWalk</text>
</g>
<!-- Diabetes_binary -->
<g id="node2" class="node">
<title>Diabetes_binary</title>
<ellipse fill="none" stroke="black" cx="221.05" cy="-18" rx="85.59" ry="18"/>
<text text-anchor="middle" x="221.05" y="-14.3" font-family="Times,serif" font-size="14.00">Diabetes_binary</text>
</g>
<!-- DiffWalk&#45;&gt;Diabetes_binary -->
<g id="edge1" class="edge">
<title>DiffWalk&#45;&gt;Diabetes_binary</title>
<path fill="none" stroke="black" d="M81.81,-76C107.75,-65.38 144.8,-50.21 174.16,-38.19"/>
<polygon fill="black" stroke="black" points="175.87,-41.28 183.8,-34.25 173.22,-34.8 175.87,-41.28"/>
</g>
<!-- HighChol -->
<g id="node3" class="node">
<title>HighChol</title>
<ellipse fill="none" stroke="black" cx="172.05" cy="-90" rx="53.89" ry="18"/>
<text text-anchor="middle" x="172.05" y="-86.3" font-family="Times,serif" font-size="14.00">HighChol</text>
</g>
<!-- HighChol&#45;&gt;Diabetes_binary -->
<g id="edge2" class="edge">
<title>HighChol&#45;&gt;Diabetes_binary</title>
<path fill="none" stroke="black" d="M183.66,-72.41C189.55,-63.99 196.84,-53.58 203.41,-44.2"/>
<polygon fill="black" stroke="black" points="206.31,-46.16 209.18,-35.96 200.57,-42.14 206.31,-46.16"/>
</g>
<!-- ... -->
<g id="node4" class="node">
<title>...</title>
<ellipse fill="none" stroke="black" cx="271.05" cy="-90" rx="27" ry="18"/>
<text text-anchor="middle" x="271.05" y="-86.3" font-family="Times,serif" font-size="14.00">...</text>
</g>
<!-- ...&#45;&gt;Diabetes_binary -->
<g id="edge3" class="edge">
<title>...&#45;&gt;Diabetes_binary</title>
<path fill="none" stroke="black" d="M259.95,-73.46C253.81,-64.87 246.02,-53.97 239.04,-44.19"/>
<polygon fill="black" stroke="black" points="241.82,-42.06 233.16,-35.96 236.13,-46.13 241.82,-42.06"/>
</g>
<!-- GenHlth -->
<g id="node5" class="node">
<title>GenHlth</title>
<ellipse fill="none" stroke="black" cx="366.05" cy="-90" rx="50.09" ry="18"/>
<text text-anchor="middle" x="366.05" y="-86.3" font-family="Times,serif" font-size="14.00">GenHlth</text>
</g>
<!-- GenHlth&#45;&gt;Diabetes_binary -->
<g id="edge4" class="edge">
<title>GenHlth&#45;&gt;Diabetes_binary</title>
<path fill="none" stroke="black" d="M337.4,-75.17C316.12,-64.9 286.78,-50.73 262.88,-39.2"/>
<polygon fill="black" stroke="black" points="264.21,-35.95 253.68,-34.76 261.17,-42.26 264.21,-35.95"/>
</g>
</g>
</svg>
